{"title":"Bhagam Bhag {Marathi - 2008} 1CD VCDRip XviD {BDU}","uid":5695860,"size":728979782,"categoryP":"other","categoryS":"other","magnet":"?xt=urn:btih:2e5a00425247bfc28edf456ebe1065e0d4339d35&amp;dn=Bhagam+Bhag+%7BMarathi+-+2008%7D+1CD+VCDRip+XviD+%7BBDU%7D&amp;tr=udp%3A%2F%2Ftracker.openbittorrent.com%3A80&amp;tr=udp%3A%2F%2Fopen.demonii.com%3A1337&amp;tr=udp%3A%2F%2Ftracker.coppersurfer.tk%3A6969&amp;tr=udp%3A%2F%2Fexodus.desync.com%3A6969","seeders":0,"leechers":2,"uploader":null,"files":1,"time":1279301532,"description":"General\nName : Bhagam Bhag\nFormat : AVI\nFormat/Info : Audio Video Interleave\nFormat profile : OpenDML\nFile size : 695 MiB\nDuration : 1h 56mn\nOverall bit rate : 831 Kbps\nWriting application : AVI-Mux GUI 1.17.8.3\n\n\nVideo\nID : 0\nFormat : MPEG-4 Visual\nFormat profile : Advanced Simple@L5\nFormat settings, BVOP : Yes\nFormat settings, QPel : No\nFormat settings, GMC : No warppoints\nFormat settings, Matrix : Default (H.263)\nCodec ID : XVID\nCodec ID/Hint : XviD\nDuration : 1h 56mn\nBit rate : 764 Kbps\nWidth : 544 pixels\nHeight : 288 pixels\nDisplay aspect ratio : 1.889\nFrame rate : 25.000 fps\nResolution : 8 bits\nColorimetry : 4:2:0\nScan type : Progressive\nBits/(Pixel*Frame) : 0.195\nStream size : 639 MiB (92%)\nWriting library : XviD 1.2.1\n\n\nAudio\nID : 1\nFormat : MPEG Audio\nFormat version : Version 2\nFormat profile : Layer 3\nMode : Joint stereo\nCodec ID : 55\nCodec ID/Hint : MP3\nDuration : 1h 56mn\nBit rate mode : Constant\nBit rate : 64.0 Kbps\nChannel(s) : 2 channels\nSampling rate : 24.0 KHz\nStream size : 53.5 MiB (8%)\nAlignment : Aligned on interleaves\nInterleave, duration : 981 ms (24.52 video frames)\nInterleave, preload duration : 216 ms\nTitle : Bhagam Bhag Final Tc0 L2 2ch 44.1 224 DELAY 0ms\nWriting library : LAME3.98r\n\n\nSource : VCD\nRipper : Nordmariner","torrent":{"xt":"urn:btih:2e5a00425247bfc28edf456ebe1065e0d4339d35","amp;dn":"Bhagam+Bhag+%7BMarathi+-+2008%7D+1CD+VCDRip+XviD+%7BBDU%7D","amp;tr":["udp%3A%2F%2Ftracker.openbittorrent.com%3A80","udp%3A%2F%2Fopen.demonii.com%3A1337","udp%3A%2F%2Ftracker.coppersurfer.tk%3A6969","udp%3A%2F%2Fexodus.desync.com%3A6969"],"infoHash":"2e5a00425247bfc28edf456ebe1065e0d4339d35","infoHashBuffer":{"type":"Buffer","data":[46,90,0,66,82,71,191,194,142,223,69,110,190,16,101,224,212,51,157,53]},"announce":[],"urlList":[]}}